<svg xmlns="http://www.w3.org/2000/svg" width="805" height="600"><rect width="805" height="600" x="0" y="0" fill="#FFFFFF" id="background"/><g id="viz"><g transform="translate(0,0)"><g transform="translate(10,20)"><g><path fill="#9467bd" d="M0,337.4633252604833C8.527022201059461,337.4633252604833,8.527022201059461,334.46842392063337,17.054044402118922,334.46842392063337C25.581066603178385,334.46842392063337,25.581066603178385,335.68934930591666,34.108088804237845,335.68934930591666C42.635111005297304,335.68934930591666,42.635111005297304,336.5657961582,51.162133206356756,336.5657961582C59.712517112076654,336.5657961582,59.712517112076654,347.9023866966667,68.26290101779655,347.9023866966667C76.78992321885602,347.9023866966667,76.78992321885602,341.10803539166665,85.31694541991548,341.10803539166665C93.84396762097495,341.10803539166665,93.84396762097495,327.06941171333335,102.37098982203442,327.06941171333335C110.89801202309387,327.06941171333335,110.89801202309387,324.0884219626667,119.42503422415332,324.0884219626667C127.97541812987322,324.0884219626667,127.97541812987322,320.1068364083334,136.5258020355931,320.1068364083334C145.05282423665255,320.1068364083334,145.05282423665255,303.3434917504334,153.57984643771204,303.3434917504334C162.10686863877152,303.3434917504334,162.10686863877152,282.89902593255005,170.63389083983097,282.89902593255005C179.16091304089042,282.89902593255005,179.16091304089042,153.56344586300006,187.6879352419499,153.56344586300006C196.2383191476698,153.56344586300006,196.2383191476698,157.07178380099992,204.7887030533897,157.07178380099992C213.31572525444915,157.07178380099992,213.31572525444915,151.70754136383337,221.8427474555086,151.70754136383337C230.36976965656805,151.70754136383337,230.36976965656805,131.9124290457334,238.89679185762753,131.9124290457334C247.423814058687,131.9124290457334,247.423814058687,119.30198837628332,255.95083625974644,119.30198837628332C264.5002467611055,119.30198837628332,264.5002467611055,118.72151424999998,273.04965726246456,118.72151424999998C281.576679463524,118.72151424999998,281.576679463524,104.90684750218335,290.10370166458347,104.90684750218335C298.63072386564295,104.90684750218335,298.63072386564295,297.9588904662,307.1577460667024,297.9588904662C315.68476826776185,297.9588904662,315.68476826776185,314.54880732696665,324.21179046882133,314.54880732696665C332.76217437454125,314.54880732696665,332.76217437454125,341.3233196549333,341.3125582802611,341.3233196549333C349.8405538856814,341.3233196549333,349.8405538856814,378.09034797591676,358.36854949110176,378.09034797591676C366.8955716921612,378.09034797591676,366.8955716921612,408.27239528251664,375.42259389322066,408.27239528251664C383.94961609428015,408.27239528251664,383.94961609428015,424.44904160413336,392.47663829533957,424.44904160413336C401.0270222010595,424.44904160413336,401.0270222010595,429.2480616747333,409.5774061067794,429.2480616747333C418.1044283078388,429.2480616747333,418.1044283078388,452.69999566704996,426.6314505088983,452.69999566704996C435.1584727099578,452.69999566704996,435.1584727099578,483.7555465412999,443.6854949110172,483.7555465412999C452.2125171120766,483.7555465412999,452.2125171120766,492.61850874703174,460.7395393131361,492.61850874703174C469.289923218856,492.61850874703174,469.289923218856,483.9975645849216,477.84030712457593,483.9975645849216C486.3673293256354,483.9975645849216,486.3673293256354,479.7023506629167,494.89435152669483,479.7023506629167C503.42137372775426,479.7023506629167,503.42137372775426,464.25624756183333,511.94839592881374,464.25624756183333C520.4754181298732,464.25624756183333,520.4754181298732,472.9584891707167,529.0024403309327,472.9584891707167C537.5528242366526,472.9584891707167,537.5528242366526,467.29395164502165,546.1032081423724,467.29395164502165C554.630230343432,467.29395164502165,554.630230343432,453.87191146343673,563.1572525444915,453.87191146343673C571.684274745551,453.87191146343673,571.684274745551,433.1604952143233,580.2112969466103,433.1604952143233C588.7373457433089,433.1604952143233,588.7373457433089,401.5630315128134,597.2633945400075,401.5630315128134C605.8137784457274,401.5630315128134,605.8137784457274,388.872826666835,614.3641623514474,388.872826666835C622.8921579568677,388.872826666835,622.8921579568677,375.9378131186767,631.420153562288,375.9378131186767C639.9471757633474,375.9378131186767,639.9471757633474,374.61722678396336,648.4741979644069,374.61722678396336C657.0012201654663,374.61722678396336,657.0012201654663,371.14180278390836,665.5282423665258,371.14180278390836C674.0786262722456,371.14180278390836,674.0786262722456,370.07396199712167,682.6290101779656,370.07396199712167C691.156032379025,370.07396199712167,691.156032379025,364.3473136677383,699.6830545800844,364.3473136677383C708.2100767811439,364.3473136677383,708.2100767811439,364.45016391035006,716.7370989822035,364.45016391035006C725.2641211832629,364.45016391035006,725.2641211832629,374.183054699545,733.7911433843224,374.183054699545C742.3415272900422,374.183054699545,742.3415272900422,387.0381985994767,750.8919111957622,387.0381985994767C759.4189333968216,387.0381985994767,759.4189333968216,396.9530834273783,767.945955597881,396.9530834273783C776.4729777989405,396.9530834273783,776.4729777989405,409.6351174197334,785,409.6351174197334L785,409.6351174197334C776.4729777989405,409.6351174197334,776.4729777989405,396.9530834273783,767.945955597881,396.9530834273783C759.4189333968216,396.9530834273783,759.4189333968216,387.0381985994767,750.8919111957622,387.0381985994767C742.3415272900422,387.0381985994767,742.3415272900422,374.183054699545,733.7911433843224,374.183054699545C725.2641211832629,374.183054699545,725.2641211832629,364.45016391035006,716.7370989822035,364.45016391035006C708.2100767811439,364.45016391035006,708.2100767811439,364.3473136677383,699.6830545800844,364.3473136677383C691.156032379025,364.3473136677383,691.156032379025,370.07396199712167,682.6290101779656,370.07396199712167C674.0786262722456,370.07396199712167,674.0786262722456,371.14180278390836,665.5282423665258,371.14180278390836C657.0012201654663,371.14180278390836,657.0012201654663,374.61722678396336,648.4741979644069,374.61722678396336C639.9471757633474,374.61722678396336,639.9471757633474,375.9378131186767,631.420153562288,375.9378131186767C622.8921579568677,375.9378131186767,622.8921579568677,388.872826666835,614.3641623514474,388.872826666835C605.8137784457274,388.872826666835,605.8137784457274,401.58796751927,597.2633945400075,401.58796751927C588.7373457433089,401.58796751927,588.7373457433089,433.24682415788664,580.2112969466103,433.24682415788664C571.684274745551,433.24682415788664,571.684274745551,453.98139420650335,563.1572525444915,453.98139420650335C554.630230343432,453.98139420650335,554.630230343432,467.694083867255,546.1032081423724,467.694083867255C537.5528242366526,467.694083867255,537.5528242366526,473.70691860958334,529.0024403309327,473.70691860958334C520.4754181298732,473.70691860958334,520.4754181298732,467.76087893683336,511.94839592881374,467.76087893683336C503.42137372775426,467.76087893683336,503.42137372775426,486.6591390679167,494.89435152669483,486.6591390679167C486.3673293256354,486.6591390679167,486.3673293256354,496.2381118572549,477.84030712457593,496.2381118572549C469.289923218856,496.2381118572549,469.289923218856,514.4636719170018,460.7395393131361,514.4636719170018C452.2125171120766,514.4636719170018,452.2125171120766,523.4862198189333,443.6854949110172,523.4862198189333C435.1584727099578,523.4862198189333,435.1584727099578,508.1190092773834,426.6314505088983,508.1190092773834C418.1044283078388,508.1190092773834,418.1044283078388,490.80432052739997,409.5774061067794,490.80432052739997C401.0270222010595,490.80432052739997,401.0270222010595,504.0856268118,392.47663829533957,504.0856268118C383.94961609428015,504.0856268118,383.94961609428015,507.69064769385005,375.42259389322066,507.69064769385005C366.8955716921612,507.69064769385005,366.8955716921612,508.9613157815834,358.36854949110176,508.9613157815834C349.8405538856814,508.9613157815834,349.8405538856814,474.01785404459997,341.3125582802611,474.01785404459997C332.76217437454125,474.01785404459997,332.76217437454125,459.7533581609666,324.21179046882133,459.7533581609666C315.68476826776185,459.7533581609666,315.68476826776185,440.3034022068667,307.1577460667024,440.3034022068667C298.63072386564295,440.3034022068667,298.63072386564295,275.16293394785,290.10370166458347,275.16293394785C281.576679463524,275.16293394785,281.576679463524,289.04130725000005,273.04965726246456,289.04130725000005C264.5002467611055,289.04130725000005,264.5002467611055,292.8865360792834,255.95083625974644,292.8865360792834C247.423814058687,292.8865360792834,247.423814058687,288.08224788993334,238.89679185762753,288.08224788993334C230.36976965656805,288.08224788993334,230.36976965656805,287.75081084716663,221.8427474555086,287.75081084716663C213.31572525444915,287.75081084716663,213.31572525444915,290.76503003766663,204.7887030533897,290.76503003766663C196.2383191476698,290.76503003766663,196.2383191476698,290.43303379966665,187.6879352419499,290.43303379966665C179.16091304089042,290.43303379966665,179.16091304089042,391.35902690588335,170.63389083983097,391.35902690588335C162.10686863877152,391.35902690588335,162.10686863877152,391.15438569323334,153.57984643771204,391.15438569323334C145.05282423665255,391.15438569323334,145.05282423665255,410.3939762766667,136.5258020355931,410.3939762766667C127.97541812987322,410.3939762766667,127.97541812987322,413.278792836,119.42503422415332,413.278792836C110.89801202309387,413.278792836,110.89801202309387,431.00255107000004,102.37098982203442,431.00255107000004C93.84396762097495,431.00255107000004,93.84396762097495,468.996659215,85.31694541991548,468.996659215C76.78992321885602,468.996659215,76.78992321885602,452.30550546999996,68.26290101779655,452.30550546999996C59.712517112076654,452.30550546999996,59.712517112076654,423.4771945884667,51.162133206356756,423.4771945884667C42.635111005297304,423.4771945884667,42.635111005297304,412.41812922741667,34.108088804237845,412.41812922741667C25.581066603178385,412.41812922741667,25.581066603178385,413.0825192860333,17.054044402118922,413.0825192860333C8.527022201059461,413.0825192860333,8.527022201059461,415.46941980285004,0,415.46941980285004Z"><title>Tape</title></path><path fill="#1f77b4" d="M0,415.46941980285004C8.527022201059461,415.46941980285004,8.527022201059461,413.0825192860333,17.054044402118922,413.0825192860333C25.581066603178385,413.0825192860333,25.581066603178385,412.41812922741667,34.108088804237845,412.41812922741667C42.635111005297304,412.41812922741667,42.635111005297304,423.4771945884667,51.162133206356756,423.4771945884667C59.712517112076654,423.4771945884667,59.712517112076654,452.30550546999996,68.26290101779655,452.30550546999996C76.78992321885602,452.30550546999996,76.78992321885602,468.996659215,85.31694541991548,468.996659215C93.84396762097495,468.996659215,93.84396762097495,431.00255107000004,102.37098982203442,431.00255107000004C110.89801202309387,431.00255107000004,110.89801202309387,413.278792836,119.42503422415332,413.278792836C127.97541812987322,413.278792836,127.97541812987322,410.3939762766667,136.5258020355931,410.3939762766667C145.05282423665255,410.3939762766667,145.05282423665255,392.15438569323334,153.57984643771204,392.15438569323334C162.10686863877152,392.15438569323334,162.10686863877152,392.35902690588335,170.63389083983097,392.35902690588335C179.16091304089042,392.35902690588335,179.16091304089042,398.50567262566665,187.6879352419499,398.50567262566665C196.2383191476698,398.50567262566665,196.2383191476698,379.33438687666666,204.7887030533897,379.33438687666666C213.31572525444915,379.33438687666666,213.31572525444915,355.6687959195,221.8427474555086,355.6687959195C230.36976965656805,355.6687959195,230.36976965656805,289.08224788993334,238.89679185762753,289.08224788993334C247.423814058687,289.08224788993334,247.423814058687,293.8865360792834,255.95083625974644,293.8865360792834C264.5002467611055,293.8865360792834,264.5002467611055,290.04130725000005,273.04965726246456,290.04130725000005C281.576679463524,290.04130725000005,281.576679463524,276.16293394785,290.10370166458347,276.16293394785C298.63072386564295,276.16293394785,298.63072386564295,105.43763478263332,307.1577460667024,105.43763478263332C315.68476826776185,105.43763478263332,315.68476826776185,85.15702808896665,324.21179046882133,85.15702808896665C332.76217437454125,85.15702808896665,332.76217437454125,69.6253135482,341.3125582802611,69.6253135482C349.8405538856814,69.6253135482,349.8405538856814,34.12009978401673,358.36854949110176,34.12009978401673C366.8955716921612,34.12009978401673,366.8955716921612,35.875803140183365,375.42259389322066,35.875803140183365C383.94961609428015,35.875803140183365,383.94961609428015,38.73278152446667,392.47663829533957,38.73278152446667C401.0270222010595,38.73278152446667,401.0270222010595,49.59641701673325,409.5774061067794,49.59641701673325C418.1044283078388,49.59641701673325,418.1044283078388,26.104807649049977,426.6314505088983,26.104807649049977C435.1584727099578,26.104807649049977,435.1584727099578,15.887909760299976,443.6854949110172,15.887909760299976C452.2125171120766,15.887909760299976,452.2125171120766,28.900123977365062,460.7395393131361,28.900123977365062C469.289923218856,28.900123977365062,469.289923218856,45.49062885425498,477.84030712457593,45.49062885425498C486.3673293256354,45.49062885425498,486.3673293256354,67.83543579571672,494.89435152669483,67.83543579571672C503.42137372775426,67.83543579571672,503.42137372775426,82.83856532406662,511.94839592881374,82.83856532406662C520.4754181298732,82.83856532406662,520.4754181298732,80.07518421201333,529.0024403309327,80.07518421201333C537.5528242366526,80.07518421201333,537.5528242366526,87.305916132745,546.1032081423724,87.305916132745C554.630230343432,87.305916132745,554.630230343432,101.01860579349658,563.1572525444915,101.01860579349658C571.684274745551,101.01860579349658,571.684274745551,121.75317584211336,580.2112969466103,121.75317584211336C588.7373457433089,121.75317584211336,588.7373457433089,153.41203248072998,597.2633945400075,153.41203248072998C605.8137784457274,153.41203248072998,605.8137784457274,167.12717333316502,614.3641623514474,167.12717333316502C622.8921579568677,167.12717333316502,622.8921579568677,180.06218688132333,631.420153562288,180.06218688132333C639.9471757633474,180.06218688132333,639.9471757633474,181.38277321603664,648.4741979644069,181.38277321603664C657.0012201654663,181.38277321603664,657.0012201654663,264.2260803793583,665.5282423665258,264.2260803793583C674.0786262722456,264.2260803793583,674.0786262722456,261.7061784119783,682.6290101779656,261.7061784119783C691.156032379025,261.7061784119783,691.156032379025,304.03567459582837,699.6830545800844,304.03567459582837C708.2100767811439,304.03567459582837,708.2100767811439,310.3805374599233,716.7370989822035,310.3805374599233C725.2641211832629,310.3805374599233,725.2641211832629,328.187851461685,733.7911433843224,328.187851461685C742.3415272900422,328.187851461685,742.3415272900422,342.9409239328967,750.8919111957622,342.9409239328967C759.4189333968216,342.9409239328967,759.4189333968216,360.6902622867417,767.945955597881,360.6902622867417C776.4729777989405,360.6902622867417,776.4729777989405,374.35872722588005,785,374.35872722588005L785,388.71163831751335C776.4729777989405,388.71163831751335,776.4729777989405,377.30533391255165,767.945955597881,377.30533391255165C759.4189333968216,377.30533391255165,759.4189333968216,368.72901151328,750.8919111957622,368.72901151328C742.3415272900422,368.72901151328,742.3415272900422,356.329337700845,733.7911433843224,356.329337700845C725.2641211832629,356.329337700845,725.2641211832629,346.80503887287335,716.7370989822035,346.80503887287335C708.2100767811439,346.80503887287335,708.2100767811439,348.9043819768317,699.6830545800844,348.9043819768317C691.156032379025,348.9043819768317,691.156032379025,316.61634077983166,682.6290101779656,316.61634077983166C674.0786262722456,316.61634077983166,674.0786262722456,328.926199427795,665.5282423665258,328.926199427795C657.0012201654663,328.926199427795,657.0012201654663,263.74521539061334,648.4741979644069,263.74521539061334C639.9471757633474,263.74521539061334,639.9471757633474,272.91140919414,631.420153562288,272.91140919414C622.8921579568677,272.91140919414,622.8921579568677,287.366929266315,614.3641623514474,287.366929266315C605.8137784457274,287.366929266315,605.8137784457274,305.18642115815663,597.2633945400075,305.18642115815663C588.7373457433089,305.18642115815663,588.7373457433089,336.65757029814665,580.2112969466103,336.65757029814665C571.684274745551,336.65757029814665,571.684274745551,378.74377604348325,563.1572525444915,378.74377604348325C554.630230343432,378.74377604348325,554.630230343432,409.27795942167836,546.1032081423724,409.27795942167836C537.5528242366526,409.27795942167836,537.5528242366526,442.5455616303467,529.0024403309327,442.5455616303467C520.4754181298732,442.5455616303467,520.4754181298732,449.03201872023334,511.94839592881374,449.03201872023334C503.42137372775426,449.03201872023334,503.42137372775426,467.8574008174167,494.89435152669483,467.8574008174167C486.3673293256354,467.8574008174167,486.3673293256354,482.9975645849216,477.84030712457593,482.9975645849216C469.289923218856,482.9975645849216,469.289923218856,491.61850874703174,460.7395393131361,491.61850874703174C452.2125171120766,491.61850874703174,452.2125171120766,482.7555465412999,443.6854949110172,482.7555465412999C435.1584727099578,482.7555465412999,435.1584727099578,451.69999566704996,426.6314505088983,451.69999566704996C418.1044283078388,451.69999566704996,418.1044283078388,428.2480616747333,409.5774061067794,428.2480616747333C401.0270222010595,428.2480616747333,401.0270222010595,423.44904160413336,392.47663829533957,423.44904160413336C383.94961609428015,423.44904160413336,383.94961609428015,407.27239528251664,375.42259389322066,407.27239528251664C366.8955716921612,407.27239528251664,366.8955716921612,377.09034797591676,358.36854949110176,377.09034797591676C349.8405538856814,377.09034797591676,349.8405538856814,340.3233196549333,341.3125582802611,340.3233196549333C332.76217437454125,340.3233196549333,332.76217437454125,313.54880732696665,324.21179046882133,313.54880732696665C315.68476826776185,313.54880732696665,315.68476826776185,296.9588904662,307.1577460667024,296.9588904662C298.63072386564295,296.9588904662,298.63072386564295,433.97261266615004,290.10370166458347,433.97261266615004C281.576679463524,433.97261266615004,281.576679463524,414.529085,273.04965726246456,414.529085C264.5002467611055,414.529085,264.5002467611055,399.7648403917167,255.95083625974644,399.7648403917167C247.423814058687,399.7648403917167,247.423814058687,372.7649053632666,238.89679185762753,372.7649053632666C230.36976965656805,372.7649053632666,230.36976965656805,406.29245863616666,221.8427474555086,406.29245863616666C213.31572525444915,406.29245863616666,213.31572525444915,400.928216199,204.7887030533897,400.928216199C196.2383191476698,400.928216199,196.2383191476698,404.43655413700003,187.6879352419499,404.43655413700003C179.16091304089042,404.43655413700003,179.16091304089042,393.38918429545,170.63389083983097,393.38918429545C162.10686863877152,393.38918429545,162.10686863877152,392.15438569323334,153.57984643771204,392.15438569323334C145.05282423665255,392.15438569323334,145.05282423665255,410.3939762766667,136.5258020355931,410.3939762766667C127.97541812987322,410.3939762766667,127.97541812987322,413.278792836,119.42503422415332,413.278792836C110.89801202309387,413.278792836,110.89801202309387,431.00255107000004,102.37098982203442,431.00255107000004C93.84396762097495,431.00255107000004,93.84396762097495,468.996659215,85.31694541991548,468.996659215C76.78992321885602,468.996659215,76.78992321885602,452.30550546999996,68.26290101779655,452.30550546999996C59.712517112076654,452.30550546999996,59.712517112076654,423.4771945884667,51.162133206356756,423.4771945884667C42.635111005297304,423.4771945884667,42.635111005297304,412.41812922741667,34.108088804237845,412.41812922741667C25.581066603178385,412.41812922741667,25.581066603178385,413.0825192860333,17.054044402118922,413.0825192860333C8.527022201059461,413.0825192860333,8.527022201059461,415.46941980285004,0,415.46941980285004Z"><title>Disc</title></path><path fill="#ff7f0e" d="M0,415.46941980285004C8.527022201059461,415.46941980285004,8.527022201059461,413.0825192860333,17.054044402118922,413.0825192860333C25.581066603178385,413.0825192860333,25.581066603178385,412.41812922741667,34.108088804237845,412.41812922741667C42.635111005297304,412.41812922741667,42.635111005297304,423.4771945884667,51.162133206356756,423.4771945884667C59.712517112076654,423.4771945884667,59.712517112076654,452.30550546999996,68.26290101779655,452.30550546999996C76.78992321885602,452.30550546999996,76.78992321885602,468.996659215,85.31694541991548,468.996659215C93.84396762097495,468.996659215,93.84396762097495,431.00255107000004,102.37098982203442,431.00255107000004C110.89801202309387,431.00255107000004,110.89801202309387,413.278792836,119.42503422415332,413.278792836C127.97541812987322,413.278792836,127.97541812987322,410.3939762766667,136.5258020355931,410.3939762766667C145.05282423665255,410.3939762766667,145.05282423665255,391.15438569323334,153.57984643771204,391.15438569323334C162.10686863877152,391.15438569323334,162.10686863877152,393.38918429545,170.63389083983097,393.38918429545C179.16091304089042,393.38918429545,179.16091304089042,404.43655413700003,187.6879352419499,404.43655413700003C196.2383191476698,404.43655413700003,196.2383191476698,400.928216199,204.7887030533897,400.928216199C213.31572525444915,400.928216199,213.31572525444915,406.29245863616666,221.8427474555086,406.29245863616666C230.36976965656805,406.29245863616666,230.36976965656805,426.08757095426665,238.89679185762753,426.08757095426665C247.423814058687,426.08757095426665,247.423814058687,437.6980116237167,255.95083625974644,437.6980116237167C264.5002467611055,437.6980116237167,264.5002467611055,438.27848575,273.04965726246456,438.27848575C281.576679463524,438.27848575,281.576679463524,452.09315249781673,290.10370166458347,452.09315249781673C298.63072386564295,452.09315249781673,298.63072386564295,451.5623652173667,307.1577460667024,451.5623652173667C315.68476826776185,451.5623652173667,315.68476826776185,471.84297191103326,324.21179046882133,471.84297191103326C332.76217437454125,471.84297191103326,332.76217437454125,487.3746864518,341.3125582802611,487.3746864518C349.8405538856814,487.3746864518,349.8405538856814,522.8799002159833,358.36854949110176,522.8799002159833C366.8955716921612,522.8799002159833,366.8955716921612,521.1241968598167,375.42259389322066,521.1241968598167C383.94961609428015,521.1241968598167,383.94961609428015,518.2672184755334,392.47663829533957,518.2672184755334C401.0270222010595,518.2672184755334,401.0270222010595,507.4035829832667,409.5774061067794,507.4035829832667C418.1044283078388,507.4035829832667,418.1044283078388,530.89519235095,426.6314505088983,530.89519235095C435.1584727099578,530.89519235095,435.1584727099578,541.1120902396999,443.6854949110172,541.1120902396999C452.2125171120766,541.1120902396999,452.2125171120766,528.099876022635,460.7395393131361,528.099876022635C469.289923218856,528.099876022635,469.289923218856,511.509371145745,477.84030712457593,511.509371145745C486.3673293256354,511.509371145745,486.3673293256354,489.16456420428335,494.89435152669483,489.16456420428335C503.42137372775426,489.16456420428335,503.42137372775426,472.1614346759334,511.94839592881374,472.1614346759334C520.4754181298732,472.1614346759334,520.4754181298732,463.92577878858333,529.0024403309327,463.92577878858333C537.5528242366526,463.92577878858333,537.5528242366526,410.27795942167836,546.1032081423724,410.27795942167836C554.630230343432,410.27795942167836,554.630230343432,379.74377604348325,563.1572525444915,379.74377604348325C571.684274745551,379.74377604348325,571.684274745551,337.65757029814665,580.2112969466103,337.65757029814665C588.7373457433089,337.65757029814665,588.7373457433089,306.18642115815663,597.2633945400075,306.18642115815663C605.8137784457274,306.18642115815663,605.8137784457274,288.366929266315,614.3641623514474,288.366929266315C622.8921579568677,288.366929266315,622.8921579568677,273.91140919414,631.420153562288,273.91140919414C639.9471757633474,273.91140919414,639.9471757633474,264.74521539061334,648.4741979644069,264.74521539061334C657.0012201654663,264.74521539061334,657.0012201654663,184.85819721609167,665.5282423665258,184.85819721609167C674.0786262722456,184.85819721609167,674.0786262722456,185.92603800287833,682.6290101779656,185.92603800287833C691.156032379025,185.92603800287833,691.156032379025,191.65268633226165,699.6830545800844,191.65268633226165C708.2100767811439,191.65268633226165,708.2100767811439,251.22481436765,716.7370989822035,251.22481436765C725.2641211832629,251.22481436765,725.2641211832629,281.29313133198826,733.7911433843224,281.29313133198826C742.3415272900422,281.29313133198826,742.3415272900422,307.81622299819,750.8919111957622,307.81622299819C759.4189333968216,307.81622299819,759.4189333968216,335.0527923796217,767.945955597881,335.0527923796217C776.4729777989405,335.0527923796217,776.4729777989405,353.4287920372667,785,353.4287920372667L785,373.35872722588005C776.4729777989405,373.35872722588005,776.4729777989405,359.6902622867417,767.945955597881,359.6902622867417C759.4189333968216,359.6902622867417,759.4189333968216,341.9409239328967,750.8919111957622,341.9409239328967C742.3415272900422,341.9409239328967,742.3415272900422,327.187851461685,733.7911433843224,327.187851461685C725.2641211832629,327.187851461685,725.2641211832629,309.3805374599233,716.7370989822035,309.3805374599233C708.2100767811439,309.3805374599233,708.2100767811439,255.986803130495,699.6830545800844,255.986803130495C691.156032379025,255.986803130495,691.156032379025,260.7061784119783,682.6290101779656,260.7061784119783C674.0786262722456,260.7061784119783,674.0786262722456,263.2260803793583,665.5282423665258,263.2260803793583C657.0012201654663,263.2260803793583,657.0012201654663,341.70027697634674,648.4741979644069,341.70027697634674C639.9471757633474,341.70027697634674,639.9471757633474,347.59440724270667,631.420153562288,347.59440724270667C622.8921579568677,347.59440724270667,622.8921579568677,362.32982517554836,614.3641623514474,362.32982517554836C605.8137784457274,362.32982517554836,605.8137784457274,380.60377644829003,597.2633945400075,380.60377644829003C588.7373457433089,380.60377644829003,588.7373457433089,406.50202516264665,580.2112969466103,406.50202516264665C571.684274745551,406.50202516264665,571.684274745551,428.5671614622167,563.1572525444915,428.5671614622167C554.630230343432,428.5671614622167,554.630230343432,438.5101894217783,546.1032081423724,438.5101894217783C537.5528242366526,438.5101894217783,537.5528242366526,469.72058056288336,529.0024403309327,469.72058056288336C520.4754181298732,469.72058056288336,520.4754181298732,472.1614346759334,511.94839592881374,472.1614346759334C503.42137372775426,472.1614346759334,503.42137372775426,489.16456420428335,494.89435152669483,489.16456420428335C486.3673293256354,489.16456420428335,486.3673293256354,511.509371145745,477.84030712457593,511.509371145745C469.289923218856,511.509371145745,469.289923218856,528.099876022635,460.7395393131361,528.099876022635C452.2125171120766,528.099876022635,452.2125171120766,541.1120902396999,443.6854949110172,541.1120902396999C435.1584727099578,541.1120902396999,435.1584727099578,530.89519235095,426.6314505088983,530.89519235095C418.1044283078388,530.89519235095,418.1044283078388,507.4035829832667,409.5774061067794,507.4035829832667C401.0270222010595,507.4035829832667,401.0270222010595,518.2672184755334,392.47663829533957,518.2672184755334C383.94961609428015,518.2672184755334,383.94961609428015,521.1241968598167,375.42259389322066,521.1241968598167C366.8955716921612,521.1241968598167,366.8955716921612,522.8799002159833,358.36854949110176,522.8799002159833C349.8405538856814,522.8799002159833,349.8405538856814,487.3746864518,341.3125582802611,487.3746864518C332.76217437454125,487.3746864518,332.76217437454125,471.84297191103326,324.21179046882133,471.84297191103326C315.68476826776185,471.84297191103326,315.68476826776185,451.5623652173667,307.1577460667024,451.5623652173667C298.63072386564295,451.5623652173667,298.63072386564295,452.09315249781673,290.10370166458347,452.09315249781673C281.576679463524,452.09315249781673,281.576679463524,438.27848575,273.04965726246456,438.27848575C264.5002467611055,438.27848575,264.5002467611055,437.6980116237167,255.95083625974644,437.6980116237167C247.423814058687,437.6980116237167,247.423814058687,426.08757095426665,238.89679185762753,426.08757095426665C230.36976965656805,426.08757095426665,230.36976965656805,406.29245863616666,221.8427474555086,406.29245863616666C213.31572525444915,406.29245863616666,213.31572525444915,400.928216199,204.7887030533897,400.928216199C196.2383191476698,400.928216199,196.2383191476698,404.43655413700003,187.6879352419499,404.43655413700003C179.16091304089042,404.43655413700003,179.16091304089042,393.38918429545,170.63389083983097,393.38918429545C162.10686863877152,393.38918429545,162.10686863877152,391.15438569323334,153.57984643771204,391.15438569323334C145.05282423665255,391.15438569323334,145.05282423665255,410.3939762766667,136.5258020355931,410.3939762766667C127.97541812987322,410.3939762766667,127.97541812987322,413.278792836,119.42503422415332,413.278792836C110.89801202309387,413.278792836,110.89801202309387,431.00255107000004,102.37098982203442,431.00255107000004C93.84396762097495,431.00255107000004,93.84396762097495,468.996659215,85.31694541991548,468.996659215C76.78992321885602,468.996659215,76.78992321885602,452.30550546999996,68.26290101779655,452.30550546999996C59.712517112076654,452.30550546999996,59.712517112076654,423.4771945884667,51.162133206356756,423.4771945884667C42.635111005297304,423.4771945884667,42.635111005297304,412.41812922741667,34.108088804237845,412.41812922741667C25.581066603178385,412.41812922741667,25.581066603178385,413.0825192860333,17.054044402118922,413.0825192860333C8.527022201059461,413.0825192860333,8.527022201059461,415.46941980285004,0,415.46941980285004Z"><title>Download</title></path><path fill="#2ca02c" d="M0,415.46941980285004C8.527022201059461,415.46941980285004,8.527022201059461,413.0825192860333,17.054044402118922,413.0825192860333C25.581066603178385,413.0825192860333,25.581066603178385,412.41812922741667,34.108088804237845,412.41812922741667C42.635111005297304,412.41812922741667,42.635111005297304,423.4771945884667,51.162133206356756,423.4771945884667C59.712517112076654,423.4771945884667,59.712517112076654,452.30550546999996,68.26290101779655,452.30550546999996C76.78992321885602,452.30550546999996,76.78992321885602,468.996659215,85.31694541991548,468.996659215C93.84396762097495,468.996659215,93.84396762097495,431.00255107000004,102.37098982203442,431.00255107000004C110.89801202309387,431.00255107000004,110.89801202309387,413.278792836,119.42503422415332,413.278792836C127.97541812987322,413.278792836,127.97541812987322,410.3939762766667,136.5258020355931,410.3939762766667C145.05282423665255,410.3939762766667,145.05282423665255,391.15438569323334,153.57984643771204,391.15438569323334C162.10686863877152,391.15438569323334,162.10686863877152,393.38918429545,170.63389083983097,393.38918429545C179.16091304089042,393.38918429545,179.16091304089042,404.43655413700003,187.6879352419499,404.43655413700003C196.2383191476698,404.43655413700003,196.2383191476698,400.928216199,204.7887030533897,400.928216199C213.31572525444915,400.928216199,213.31572525444915,406.29245863616666,221.8427474555086,406.29245863616666C230.36976965656805,406.29245863616666,230.36976965656805,426.08757095426665,238.89679185762753,426.08757095426665C247.423814058687,426.08757095426665,247.423814058687,437.6980116237167,255.95083625974644,437.6980116237167C264.5002467611055,437.6980116237167,264.5002467611055,432.72688025,273.04965726246456,432.72688025C281.576679463524,432.72688025,281.576679463524,444.2291405704834,290.10370166458347,444.2291405704834C298.63072386564295,444.2291405704834,298.63072386564295,441.3034022068667,307.1577460667024,441.3034022068667C315.68476826776185,441.3034022068667,315.68476826776185,460.7533581609666,324.21179046882133,460.7533581609666C332.76217437454125,460.7533581609666,332.76217437454125,475.01785404459997,341.3125582802611,475.01785404459997C349.8405538856814,475.01785404459997,349.8405538856814,509.9613157815834,358.36854949110176,509.9613157815834C366.8955716921612,509.9613157815834,366.8955716921612,508.69064769385005,375.42259389322066,508.69064769385005C383.94961609428015,508.69064769385005,383.94961609428015,505.0856268118,392.47663829533957,505.0856268118C401.0270222010595,505.0856268118,401.0270222010595,491.80432052739997,409.5774061067794,491.80432052739997C418.1044283078388,491.80432052739997,418.1044283078388,509.1190092773834,426.6314505088983,509.1190092773834C435.1584727099578,509.1190092773834,435.1584727099578,524.4862198189333,443.6854949110172,524.4862198189333C452.2125171120766,524.4862198189333,452.2125171120766,515.4636719170018,460.7395393131361,515.4636719170018C469.289923218856,515.4636719170018,469.289923218856,497.2381118572549,477.84030712457593,497.2381118572549C486.3673293256354,497.2381118572549,486.3673293256354,468.8574008174167,494.89435152669483,468.8574008174167C503.42137372775426,468.8574008174167,503.42137372775426,450.03201872023334,511.94839592881374,450.03201872023334C520.4754181298732,450.03201872023334,520.4754181298732,443.5455616303467,529.0024403309327,443.5455616303467C537.5528242366526,443.5455616303467,537.5528242366526,439.5101894217783,546.1032081423724,439.5101894217783C554.630230343432,439.5101894217783,554.630230343432,429.5671614622167,563.1572525444915,429.5671614622167C571.684274745551,429.5671614622167,571.684274745551,407.50202516264665,580.2112969466103,407.50202516264665C588.7373457433089,407.50202516264665,588.7373457433089,391.50870142362334,597.2633945400075,391.50870142362334C605.8137784457274,391.50870142362334,605.8137784457274,363.32982517554836,614.3641623514474,363.32982517554836C622.8921579568677,363.32982517554836,622.8921579568677,362.22233918637335,631.420153562288,362.22233918637335C639.9471757633474,362.22233918637335,639.9471757633474,361.03359706668,648.4741979644069,361.03359706668C657.0012201654663,361.03359706668,657.0012201654663,357.7609592164617,665.5282423665258,357.7609592164617C674.0786262722456,357.7609592164617,674.0786262722456,355.8642281254983,682.6290101779656,355.8642281254983C691.156032379025,355.8642281254983,691.156032379025,349.9043819768317,699.6830545800844,349.9043819768317C708.2100767811439,349.9043819768317,708.2100767811439,357.34045511311,716.7370989822035,357.34045511311C725.2641211832629,357.34045511311,725.2641211832629,367.28481575672834,733.7911433843224,367.28481575672834C742.3415272900422,367.28481575672834,742.3415272900422,380.33188579334666,750.8919111957622,380.33188579334666C759.4189333968216,380.33188579334666,759.4189333968216,389.39014952398173,767.945955597881,389.39014952398173C776.4729777989405,389.39014952398173,776.4729777989405,402.48061853554333,785,402.48061853554333L785,409.6351174197334C776.4729777989405,409.6351174197334,776.4729777989405,396.9530834273783,767.945955597881,396.9530834273783C759.4189333968216,396.9530834273783,759.4189333968216,387.0381985994767,750.8919111957622,387.0381985994767C742.3415272900422,387.0381985994767,742.3415272900422,374.183054699545,733.7911433843224,374.183054699545C725.2641211832629,374.183054699545,725.2641211832629,364.45016391035006,716.7370989822035,364.45016391035006C708.2100767811439,364.45016391035006,708.2100767811439,357.06422878546834,699.6830545800844,357.06422878546834C691.156032379025,357.06422878546834,691.156032379025,363.60128538013834,682.6290101779656,363.60128538013834C674.0786262722456,363.60128538013834,674.0786262722456,365.8426487348817,665.5282423665258,365.8426487348817C657.0012201654663,365.8426487348817,657.0012201654663,370.32877560275,648.4741979644069,370.32877560275C639.9471757633474,370.32877560275,639.9471757633474,372.4428664262566,631.420153562288,372.4428664262566C622.8921579568677,372.4428664262566,622.8921579568677,374.97202988261836,614.3641623514474,374.97202988261836C605.8137784457274,374.97202988261836,605.8137784457274,397.9117137512467,597.2633945400075,397.9117137512467C588.7373457433089,397.9117137512467,588.7373457433089,421.6110521707134,580.2112969466103,421.6110521707134C571.684274745551,421.6110521707134,571.684274745551,443.04241583727,563.1572525444915,443.04241583727C554.630230343432,443.04241583727,554.630230343432,458.2766960885883,546.1032081423724,458.2766960885883C537.5528242366526,458.2766960885883,537.5528242366526,462.92577878858333,529.0024403309327,462.92577878858333C520.4754181298732,462.92577878858333,520.4754181298732,463.25624756183333,511.94839592881374,463.25624756183333C503.42137372775426,463.25624756183333,503.42137372775426,478.7023506629167,494.89435152669483,478.7023506629167C486.3673293256354,478.7023506629167,486.3673293256354,508.5287872721783,477.84030712457593,508.5287872721783C469.289923218856,508.5287872721783,469.289923218856,525.2292150470017,460.7395393131361,525.2292150470017C452.2125171120766,525.2292150470017,452.2125171120766,537.9744539792666,443.6854949110172,537.9744539792666C435.1584727099578,537.9744539792666,435.1584727099578,527.71034449205,426.6314505088983,527.71034449205C418.1044283078388,527.71034449205,418.1044283078388,503.84276530706666,409.5774061067794,503.84276530706666C401.0270222010595,503.84276530706666,401.0270222010595,514.0621367738,392.47663829533957,514.0621367738C383.94961609428015,514.0621367738,383.94961609428015,517.3137592351834,375.42259389322066,517.3137592351834C366.8955716921612,517.3137592351834,366.8955716921612,519.2635274089167,358.36854949110176,519.2635274089167C349.8405538856814,519.2635274089167,349.8405538856814,483.82342420960003,341.3125582802611,483.82342420960003C332.76217437454125,483.82342420960003,332.76217437454125,467.44575261563335,324.21179046882133,467.44575261563335C315.68476826776185,467.44575261563335,315.68476826776185,446.4759827715333,307.1577460667024,446.4759827715333C298.63072386564295,446.4759827715333,298.63072386564295,452.09315249781673,290.10370166458347,452.09315249781673C281.576679463524,452.09315249781673,281.576679463524,438.27848575,273.04965726246456,438.27848575C264.5002467611055,438.27848575,264.5002467611055,437.6980116237167,255.95083625974644,437.6980116237167C247.423814058687,437.6980116237167,247.423814058687,426.08757095426665,238.89679185762753,426.08757095426665C230.36976965656805,426.08757095426665,230.36976965656805,406.29245863616666,221.8427474555086,406.29245863616666C213.31572525444915,406.29245863616666,213.31572525444915,400.928216199,204.7887030533897,400.928216199C196.2383191476698,400.928216199,196.2383191476698,404.43655413700003,187.6879352419499,404.43655413700003C179.16091304089042,404.43655413700003,179.16091304089042,393.38918429545,170.63389083983097,393.38918429545C162.10686863877152,393.38918429545,162.10686863877152,391.15438569323334,153.57984643771204,391.15438569323334C145.05282423665255,391.15438569323334,145.05282423665255,410.3939762766667,136.5258020355931,410.3939762766667C127.97541812987322,410.3939762766667,127.97541812987322,413.278792836,119.42503422415332,413.278792836C110.89801202309387,413.278792836,110.89801202309387,431.00255107000004,102.37098982203442,431.00255107000004C93.84396762097495,431.00255107000004,93.84396762097495,468.996659215,85.31694541991548,468.996659215C76.78992321885602,468.996659215,76.78992321885602,452.30550546999996,68.26290101779655,452.30550546999996C59.712517112076654,452.30550546999996,59.712517112076654,423.4771945884667,51.162133206356756,423.4771945884667C42.635111005297304,423.4771945884667,42.635111005297304,412.41812922741667,34.108088804237845,412.41812922741667C25.581066603178385,412.41812922741667,25.581066603178385,413.0825192860333,17.054044402118922,413.0825192860333C8.527022201059461,413.0825192860333,8.527022201059461,415.46941980285004,0,415.46941980285004Z"><title>Other</title></path><path fill="#d62728" d="M0,415.46941980285004C8.527022201059461,415.46941980285004,8.527022201059461,413.0825192860333,17.054044402118922,413.0825192860333C25.581066603178385,413.0825192860333,25.581066603178385,412.41812922741667,34.108088804237845,412.41812922741667C42.635111005297304,412.41812922741667,42.635111005297304,423.4771945884667,51.162133206356756,423.4771945884667C59.712517112076654,423.4771945884667,59.712517112076654,452.30550546999996,68.26290101779655,452.30550546999996C76.78992321885602,452.30550546999996,76.78992321885602,468.996659215,85.31694541991548,468.996659215C93.84396762097495,468.996659215,93.84396762097495,431.00255107000004,102.37098982203442,431.00255107000004C110.89801202309387,431.00255107000004,110.89801202309387,413.278792836,119.42503422415332,413.278792836C127.97541812987322,413.278792836,127.97541812987322,410.3939762766667,136.5258020355931,410.3939762766667C145.05282423665255,410.3939762766667,145.05282423665255,391.15438569323334,153.57984643771204,391.15438569323334C162.10686863877152,391.15438569323334,162.10686863877152,393.38918429545,170.63389083983097,393.38918429545C179.16091304089042,393.38918429545,179.16091304089042,404.43655413700003,187.6879352419499,404.43655413700003C196.2383191476698,404.43655413700003,196.2383191476698,400.928216199,204.7887030533897,400.928216199C213.31572525444915,400.928216199,213.31572525444915,406.29245863616666,221.8427474555086,406.29245863616666C230.36976965656805,406.29245863616666,230.36976965656805,426.08757095426665,238.89679185762753,426.08757095426665C247.423814058687,426.08757095426665,247.423814058687,436.6980116237167,255.95083625974644,436.6980116237167C264.5002467611055,436.6980116237167,264.5002467611055,438.27848575,273.04965726246456,438.27848575C281.576679463524,438.27848575,281.576679463524,452.09315249781673,290.10370166458347,452.09315249781673C298.63072386564295,452.09315249781673,298.63072386564295,451.5623652173667,307.1577460667024,451.5623652173667C315.68476826776185,451.5623652173667,315.68476826776185,471.84297191103326,324.21179046882133,471.84297191103326C332.76217437454125,471.84297191103326,332.76217437454125,487.3746864518,341.3125582802611,487.3746864518C349.8405538856814,487.3746864518,349.8405538856814,522.8799002159833,358.36854949110176,522.8799002159833C366.8955716921612,522.8799002159833,366.8955716921612,521.1241968598167,375.42259389322066,521.1241968598167C383.94961609428015,521.1241968598167,383.94961609428015,518.2672184755334,392.47663829533957,518.2672184755334C401.0270222010595,518.2672184755334,401.0270222010595,507.4035829832667,409.5774061067794,507.4035829832667C418.1044283078388,507.4035829832667,418.1044283078388,530.89519235095,426.6314505088983,530.89519235095C435.1584727099578,530.89519235095,435.1584727099578,541.1120902396999,443.6854949110172,541.1120902396999C452.2125171120766,541.1120902396999,452.2125171120766,528.099876022635,460.7395393131361,528.099876022635C469.289923218856,528.099876022635,469.289923218856,511.509371145745,477.84030712457593,511.509371145745C486.3673293256354,511.509371145745,486.3673293256354,489.16456420428335,494.89435152669483,489.16456420428335C503.42137372775426,489.16456420428335,503.42137372775426,471.1614346759334,511.94839592881374,471.1614346759334C520.4754181298732,471.1614346759334,520.4754181298732,474.70691860958334,529.0024403309327,474.70691860958334C537.5528242366526,474.70691860958334,537.5528242366526,459.2766960885883,546.1032081423724,459.2766960885883C554.630230343432,459.2766960885883,554.630230343432,444.04241583727,563.1572525444915,444.04241583727C571.684274745551,444.04241583727,571.684274745551,422.6110521707134,580.2112969466103,422.6110521707134C588.7373457433089,422.6110521707134,588.7373457433089,381.60377644829003,597.2633945400075,381.60377644829003C605.8137784457274,381.60377644829003,605.8137784457274,375.97202988261836,614.3641623514474,375.97202988261836C622.8921579568677,375.97202988261836,622.8921579568677,348.59440724270667,631.420153562288,348.59440724270667C639.9471757633474,348.59440724270667,639.9471757633474,342.70027697634674,648.4741979644069,342.70027697634674C657.0012201654663,342.70027697634674,657.0012201654663,329.926199427795,665.5282423665258,329.926199427795C674.0786262722456,329.926199427795,674.0786262722456,317.61634077983166,682.6290101779656,317.61634077983166C691.156032379025,317.61634077983166,691.156032379025,256.986803130495,699.6830545800844,256.986803130495C708.2100767811439,256.986803130495,708.2100767811439,191.54983608965003,716.7370989822035,191.54983608965003C725.2641211832629,191.54983608965003,725.2641211832629,181.81694530045502,733.7911433843224,181.81694530045502C742.3415272900422,181.81694530045502,742.3415272900422,168.96180140052334,750.8919111957622,168.96180140052334C759.4189333968216,168.96180140052334,759.4189333968216,159.04691657262168,767.945955597881,159.04691657262168C776.4729777989405,159.04691657262168,776.4729777989405,146.36488258026662,785,146.36488258026662L785,352.4287920372667C776.4729777989405,352.4287920372667,776.4729777989405,334.0527923796217,767.945955597881,334.0527923796217C759.4189333968216,334.0527923796217,759.4189333968216,306.81622299819,750.8919111957622,306.81622299819C742.3415272900422,306.81622299819,742.3415272900422,280.29313133198826,733.7911433843224,280.29313133198826C725.2641211832629,280.29313133198826,725.2641211832629,250.22481436765,716.7370989822035,250.22481436765C708.2100767811439,250.22481436765,708.2100767811439,303.03567459582837,699.6830545800844,303.03567459582837C691.156032379025,303.03567459582837,691.156032379025,354.8642281254983,682.6290101779656,354.8642281254983C674.0786262722456,354.8642281254983,674.0786262722456,356.7609592164617,665.5282423665258,356.7609592164617C657.0012201654663,356.7609592164617,657.0012201654663,360.03359706668,648.4741979644069,360.03359706668C639.9471757633474,360.03359706668,639.9471757633474,361.22233918637335,631.420153562288,361.22233918637335C622.8921579568677,361.22233918637335,622.8921579568677,386.0293153889516,614.3641623514474,386.0293153889516C605.8137784457274,386.0293153889516,605.8137784457274,390.50870142362334,597.2633945400075,390.50870142362334C588.7373457433089,390.50870142362334,588.7373457433089,430.3864123537466,580.2112969466103,430.3864123537466C571.684274745551,430.3864123537466,571.684274745551,451.11440924127,563.1572525444915,451.11440924127C554.630230343432,451.11440924127,554.630230343432,464.4570338672884,546.1032081423724,464.4570338672884C537.5528242366526,464.4570338672884,537.5528242366526,474.92481578798674,529.0024403309327,474.92481578798674C520.4754181298732,474.92481578798674,520.4754181298732,471.1614346759334,511.94839592881374,471.1614346759334C503.42137372775426,471.1614346759334,503.42137372775426,489.16456420428335,494.89435152669483,489.16456420428335C486.3673293256354,489.16456420428335,486.3673293256354,511.509371145745,477.84030712457593,511.509371145745C469.289923218856,511.509371145745,469.289923218856,528.099876022635,460.7395393131361,528.099876022635C452.2125171120766,528.099876022635,452.2125171120766,541.1120902396999,443.6854949110172,541.1120902396999C435.1584727099578,541.1120902396999,435.1584727099578,530.89519235095,426.6314505088983,530.89519235095C418.1044283078388,530.89519235095,418.1044283078388,507.4035829832667,409.5774061067794,507.4035829832667C401.0270222010595,507.4035829832667,401.0270222010595,518.2672184755334,392.47663829533957,518.2672184755334C383.94961609428015,518.2672184755334,383.94961609428015,521.1241968598167,375.42259389322066,521.1241968598167C366.8955716921612,521.1241968598167,366.8955716921612,522.8799002159833,358.36854949110176,522.8799002159833C349.8405538856814,522.8799002159833,349.8405538856814,487.3746864518,341.3125582802611,487.3746864518C332.76217437454125,487.3746864518,332.76217437454125,471.84297191103326,324.21179046882133,471.84297191103326C315.68476826776185,471.84297191103326,315.68476826776185,451.5623652173667,307.1577460667024,451.5623652173667C298.63072386564295,451.5623652173667,298.63072386564295,452.09315249781673,290.10370166458347,452.09315249781673C281.576679463524,452.09315249781673,281.576679463524,438.27848575,273.04965726246456,438.27848575C264.5002467611055,438.27848575,264.5002467611055,436.6980116237167,255.95083625974644,436.6980116237167C247.423814058687,436.6980116237167,247.423814058687,426.08757095426665,238.89679185762753,426.08757095426665C230.36976965656805,426.08757095426665,230.36976965656805,406.29245863616666,221.8427474555086,406.29245863616666C213.31572525444915,406.29245863616666,213.31572525444915,400.928216199,204.7887030533897,400.928216199C196.2383191476698,400.928216199,196.2383191476698,404.43655413700003,187.6879352419499,404.43655413700003C179.16091304089042,404.43655413700003,179.16091304089042,393.38918429545,170.63389083983097,393.38918429545C162.10686863877152,393.38918429545,162.10686863877152,391.15438569323334,153.57984643771204,391.15438569323334C145.05282423665255,391.15438569323334,145.05282423665255,410.3939762766667,136.5258020355931,410.3939762766667C127.97541812987322,410.3939762766667,127.97541812987322,413.278792836,119.42503422415332,413.278792836C110.89801202309387,413.278792836,110.89801202309387,431.00255107000004,102.37098982203442,431.00255107000004C93.84396762097495,431.00255107000004,93.84396762097495,468.996659215,85.31694541991548,468.996659215C76.78992321885602,468.996659215,76.78992321885602,452.30550546999996,68.26290101779655,452.30550546999996C59.712517112076654,452.30550546999996,59.712517112076654,423.4771945884667,51.162133206356756,423.4771945884667C42.635111005297304,423.4771945884667,42.635111005297304,412.41812922741667,34.108088804237845,412.41812922741667C25.581066603178385,412.41812922741667,25.581066603178385,413.0825192860333,17.054044402118922,413.0825192860333C8.527022201059461,413.0825192860333,8.527022201059461,415.46941980285004,0,415.46941980285004Z"><title>Streaming</title></path><path fill="#8c564b" d="M0,143.53058019715004C8.527022201059461,143.53058019715004,8.527022201059461,145.91748071396668,17.054044402118922,145.91748071396668C25.581066603178385,145.91748071396668,25.581066603178385,146.58187077258341,34.108088804237845,146.58187077258341C42.635111005297304,146.58187077258341,42.635111005297304,135.52280541153334,51.162133206356756,135.52280541153334C59.712517112076654,135.52280541153334,59.712517112076654,106.69449453000001,68.26290101779655,106.69449453000001C76.78992321885602,106.69449453000001,76.78992321885602,90.00334078500005,85.31694541991548,90.00334078500005C93.84396762097495,90.00334078500005,93.84396762097495,127.99744892999999,102.37098982203442,127.99744892999999C110.89801202309387,127.99744892999999,110.89801202309387,145.72120716399996,119.42503422415332,145.72120716399996C127.97541812987322,145.72120716399996,127.97541812987322,148.60602372333335,136.5258020355931,148.60602372333335C145.05282423665255,148.60602372333335,145.05282423665255,165.84561430676666,153.57984643771204,165.84561430676666C162.10686863877152,165.84561430676666,162.10686863877152,164.61081570455002,170.63389083983097,164.61081570455002C179.16091304089042,164.61081570455002,179.16091304089042,291.43303379966665,187.6879352419499,291.43303379966665C196.2383191476698,291.43303379966665,196.2383191476698,291.76503003766663,204.7887030533897,291.76503003766663C213.31572525444915,291.76503003766663,213.31572525444915,288.75081084716663,221.8427474555086,288.75081084716663C230.36976965656805,288.75081084716663,230.36976965656805,373.7649053632666,238.89679185762753,373.7649053632666C247.423814058687,373.7649053632666,247.423814058687,400.7648403917167,255.95083625974644,400.7648403917167C264.5002467611055,400.7648403917167,264.5002467611055,415.529085,273.04965726246456,415.529085C281.576679463524,415.529085,281.576679463524,434.97261266615004,290.10370166458347,434.97261266615004C298.63072386564295,434.97261266615004,298.63072386564295,447.4759827715333,307.1577460667024,447.4759827715333C315.68476826776185,447.4759827715333,315.68476826776185,468.44575261563335,324.21179046882133,468.44575261563335C332.76217437454125,468.44575261563335,332.76217437454125,484.82342420960003,341.3125582802611,484.82342420960003C349.8405538856814,484.82342420960003,349.8405538856814,520.2635274089167,358.36854949110176,520.2635274089167C366.8955716921612,520.2635274089167,366.8955716921612,518.3137592351834,375.42259389322066,518.3137592351834C383.94961609428015,518.3137592351834,383.94961609428015,515.0621367738,392.47663829533957,515.0621367738C401.0270222010595,515.0621367738,401.0270222010595,504.84276530706666,409.5774061067794,504.84276530706666C418.1044283078388,504.84276530706666,418.1044283078388,528.71034449205,426.6314505088983,528.71034449205C435.1584727099578,528.71034449205,435.1584727099578,538.9744539792666,443.6854949110172,538.9744539792666C452.2125171120766,538.9744539792666,452.2125171120766,526.2292150470017,460.7395393131361,526.2292150470017C469.289923218856,526.2292150470017,469.289923218856,509.5287872721783,477.84030712457593,509.5287872721783C486.3673293256354,509.5287872721783,486.3673293256354,487.6591390679167,494.89435152669483,487.6591390679167C503.42137372775426,487.6591390679167,503.42137372775426,468.76087893683336,511.94839592881374,468.76087893683336C520.4754181298732,468.76087893683336,520.4754181298732,470.72058056288336,529.0024403309327,470.72058056288336C537.5528242366526,470.72058056288336,537.5528242366526,465.4570338672884,546.1032081423724,465.4570338672884C554.630230343432,465.4570338672884,554.630230343432,452.11440924127,563.1572525444915,452.11440924127C571.684274745551,452.11440924127,571.684274745551,431.3864123537466,580.2112969466103,431.3864123537466C588.7373457433089,431.3864123537466,588.7373457433089,398.9117137512467,597.2633945400075,398.9117137512467C605.8137784457274,398.9117137512467,605.8137784457274,387.0293153889516,614.3641623514474,387.0293153889516C622.8921579568677,387.0293153889516,622.8921579568677,373.4428664262566,631.420153562288,373.4428664262566C639.9471757633474,373.4428664262566,639.9471757633474,371.32877560275,648.4741979644069,371.32877560275C657.0012201654663,371.32877560275,657.0012201654663,366.8426487348817,665.5282423665258,366.8426487348817C674.0786262722456,366.8426487348817,674.0786262722456,364.60128538013834,682.6290101779656,364.60128538013834C691.156032379025,364.60128538013834,691.156032379025,358.06422878546834,699.6830545800844,358.06422878546834C708.2100767811439,358.06422878546834,708.2100767811439,347.80503887287335,716.7370989822035,347.80503887287335C725.2641211832629,347.80503887287335,725.2641211832629,357.329337700845,733.7911433843224,357.329337700845C742.3415272900422,357.329337700845,742.3415272900422,369.72901151328,750.8919111957622,369.72901151328C759.4189333968216,369.72901151328,759.4189333968216,378.30533391255165,767.945955597881,378.30533391255165C776.4729777989405,378.30533391255165,776.4729777989405,389.71163831751335,785,389.71163831751335L785,401.48061853554333C776.4729777989405,401.48061853554333,776.4729777989405,388.39014952398173,767.945955597881,388.39014952398173C759.4189333968216,388.39014952398173,759.4189333968216,379.33188579334666,750.8919111957622,379.33188579334666C742.3415272900422,379.33188579334666,742.3415272900422,366.28481575672834,733.7911433843224,366.28481575672834C725.2641211832629,366.28481575672834,725.2641211832629,356.34045511311,716.7370989822035,356.34045511311C708.2100767811439,356.34045511311,708.2100767811439,364.3473136677383,699.6830545800844,364.3473136677383C691.156032379025,364.3473136677383,691.156032379025,370.07396199712167,682.6290101779656,370.07396199712167C674.0786262722456,370.07396199712167,674.0786262722456,371.14180278390836,665.5282423665258,371.14180278390836C657.0012201654663,371.14180278390836,657.0012201654663,374.61722678396336,648.4741979644069,374.61722678396336C639.9471757633474,374.61722678396336,639.9471757633474,375.9378131186767,631.420153562288,375.9378131186767C622.8921579568677,375.9378131186767,622.8921579568677,388.872826666835,614.3641623514474,388.872826666835C605.8137784457274,388.872826666835,605.8137784457274,400.5630315128134,597.2633945400075,400.5630315128134C588.7373457433089,400.5630315128134,588.7373457433089,432.1604952143233,580.2112969466103,432.1604952143233C571.684274745551,432.1604952143233,571.684274745551,452.87191146343673,563.1572525444915,452.87191146343673C554.630230343432,452.87191146343673,554.630230343432,466.29395164502165,546.1032081423724,466.29395164502165C537.5528242366526,466.29395164502165,537.5528242366526,471.9584891707167,529.0024403309327,471.9584891707167C520.4754181298732,471.9584891707167,520.4754181298732,470.1614346759334,511.94839592881374,470.1614346759334C503.42137372775426,470.1614346759334,503.42137372775426,489.16456420428335,494.89435152669483,489.16456420428335C486.3673293256354,489.16456420428335,486.3673293256354,511.509371145745,477.84030712457593,511.509371145745C469.289923218856,511.509371145745,469.289923218856,528.099876022635,460.7395393131361,528.099876022635C452.2125171120766,528.099876022635,452.2125171120766,541.1120902396999,443.6854949110172,541.1120902396999C435.1584727099578,541.1120902396999,435.1584727099578,530.89519235095,426.6314505088983,530.89519235095C418.1044283078388,530.89519235095,418.1044283078388,507.4035829832667,409.5774061067794,507.4035829832667C401.0270222010595,507.4035829832667,401.0270222010595,518.2672184755334,392.47663829533957,518.2672184755334C383.94961609428015,518.2672184755334,383.94961609428015,521.1241968598167,375.42259389322066,521.1241968598167C366.8955716921612,521.1241968598167,366.8955716921612,522.8799002159833,358.36854949110176,522.8799002159833C349.8405538856814,522.8799002159833,349.8405538856814,487.3746864518,341.3125582802611,487.3746864518C332.76217437454125,487.3746864518,332.76217437454125,471.84297191103326,324.21179046882133,471.84297191103326C315.68476826776185,471.84297191103326,315.68476826776185,451.5623652173667,307.1577460667024,451.5623652173667C298.63072386564295,451.5623652173667,298.63072386564295,443.2291405704834,290.10370166458347,443.2291405704834C281.576679463524,443.2291405704834,281.576679463524,431.72688025,273.04965726246456,431.72688025C264.5002467611055,431.72688025,264.5002467611055,436.6980116237167,255.95083625974644,436.6980116237167C247.423814058687,436.6980116237167,247.423814058687,426.08757095426665,238.89679185762753,426.08757095426665C230.36976965656805,426.08757095426665,230.36976965656805,354.6687959195,221.8427474555086,354.6687959195C213.31572525444915,354.6687959195,213.31572525444915,378.33438687666666,204.7887030533897,378.33438687666666C196.2383191476698,378.33438687666666,196.2383191476698,397.50567262566665,187.6879352419499,397.50567262566665C179.16091304089042,397.50567262566665,179.16091304089042,281.89902593255005,170.63389083983097,281.89902593255005C162.10686863877152,281.89902593255005,162.10686863877152,302.3434917504334,153.57984643771204,302.3434917504334C145.05282423665255,302.3434917504334,145.05282423665255,319.1068364083334,136.5258020355931,319.1068364083334C127.97541812987322,319.1068364083334,127.97541812987322,323.0884219626667,119.42503422415332,323.0884219626667C110.89801202309387,323.0884219626667,110.89801202309387,326.06941171333335,102.37098982203442,326.06941171333335C93.84396762097495,326.06941171333335,93.84396762097495,340.10803539166665,85.31694541991548,340.10803539166665C76.78992321885602,340.10803539166665,76.78992321885602,346.9023866966667,68.26290101779655,346.9023866966667C59.712517112076654,346.9023866966667,59.712517112076654,335.5657961582,51.162133206356756,335.5657961582C42.635111005297304,335.5657961582,42.635111005297304,334.68934930591666,34.108088804237845,334.68934930591666C25.581066603178385,334.68934930591666,25.581066603178385,333.46842392063337,17.054044402118922,333.46842392063337C8.527022201059461,333.46842392063337,8.527022201059461,336.4633252604833,0,336.4633252604833Z"><title>Vinyl</title></path></g><g id="xAxis" transform="translate(0,560)" fill="none" font-size="10" font-family="sans-serif" text-anchor="middle"><path class="domain" stroke="currentColor" d="M0,0H785"/><g class="tick" opacity="1" transform="translate(34.108088804237845,0)"><line stroke="currentColor" y2="6"/><text fill="currentColor" y="9" dy="0.71em">1975</text></g><g class="tick" opacity="1" transform="translate(119.42503422415332,0)"><line stroke="currentColor" y2="6"/><text fill="currentColor" y="9" dy="0.71em">1980</text></g><g class="tick" opacity="1" transform="translate(204.7887030533897,0)"><line stroke="currentColor" y2="6"/><text fill="currentColor" y="9" dy="0.71em">1985</text></g><g class="tick" opacity="1" transform="translate(290.10370166458347,0)"><line stroke="currentColor" y2="6"/><text fill="currentColor" y="9" dy="0.71em">1990</text></g><g class="tick" opacity="1" transform="translate(375.42259389322066,0)"><line stroke="currentColor" y2="6"/><text fill="currentColor" y="9" dy="0.71em">1995</text></g><g class="tick" opacity="1" transform="translate(460.7395393131361,0)"><line stroke="currentColor" y2="6"/><text fill="currentColor" y="9" dy="0.71em">2000</text></g><g class="tick" opacity="1" transform="translate(546.1032081423724,0)"><line stroke="currentColor" y2="6"/><text fill="currentColor" y="9" dy="0.71em">2005</text></g><g class="tick" opacity="1" transform="translate(631.420153562288,0)"><line stroke="currentColor" y2="6"/><text fill="currentColor" y="9" dy="0.71em">2010</text></g><g class="tick" opacity="1" transform="translate(716.7370989822035,0)"><line stroke="currentColor" y2="6"/><text fill="currentColor" y="9" dy="0.71em">2015</text></g></g><text y="556" x="785" text-anchor="end" style="font-family: Arial, sans-serif; font-size: 12px; fill: rgb(123, 123, 123); font-weight: bold;">year-date</text><text x="4" text-anchor="start" dominant-baseline="hanging" style="font-family: Arial, sans-serif; font-size: 12px; fill: rgb(123, 123, 123); font-weight: bold;">Revenues in millions (Adjusted for inflation)</text><g id="labels"><text x="255.95083625974644" y="206.09426222778333" text-anchor="middle" alignment-baseline="middle" style="font-family: Arial, sans-serif; font-size: 10px; fill: black; font-weight: bold;">Tape</text><text x="443.6854949110172" y="249.32172815079997" text-anchor="middle" alignment-baseline="middle" style="font-family: Arial, sans-serif; font-size: 10px; fill: black; font-weight: bold;">Disc</text><text x="665.5282423665258" y="224.042138797725" text-anchor="middle" alignment-baseline="middle" style="font-family: Arial, sans-serif; font-size: 10px; fill: black; font-weight: bold;">Download</text><text x="529.0024403309327" y="453.235670209465" text-anchor="middle" alignment-baseline="middle" style="font-family: Arial, sans-serif; font-size: 10px; fill: black; font-weight: bold;">Other</text><text x="785" y="249.39683730876666" text-anchor="end" alignment-baseline="middle" style="font-family: Arial, sans-serif; font-size: 10px; fill: black; font-weight: bold;">Streaming</text><text x="85.31694541991548" y="215.0556880883333" text-anchor="middle" alignment-baseline="middle" style="font-family: Arial, sans-serif; font-size: 10px; fill: black; font-weight: bold;">Vinyl</text></g></g><text x="4" y="4" style="font-family: Arial, sans-serif; font-size: 12px; fill: black; font-weight: bold; dominant-baseline: hanging;"/></g></g></svg>