<svg xmlns="http://www.w3.org/2000/svg" width="805" height="600"><rect width="805" height="600" x="0" y="0" fill="#FFFFFF" id="background"/><g transform="translate(10,10)" id="visualization"><g><rect x="390" y="60" height="8.5" width="5" fill="black"><title>Chemtrails Over The Country Club: 1</title></rect><rect x="390" y="73.5" height="8.5" width="5" fill="black"><title>Say Yes To Heaven: 1</title></rect><rect x="390" y="87" height="8.5" width="5" fill="black"><title>Norman Fucking Rockwell!: 1</title></rect><rect x="390" y="100.5" height="8.5" width="5" fill="black"><title>Young And Beautiful: 1</title></rect><rect x="780" y="0" height="8.5" width="5" fill="black"><title>The Prophecy: 1</title></rect><rect x="780" y="13.5" height="8.5" width="5" fill="black"><title>I Look in People's Windows: 1</title></rect><rect x="780" y="27" height="8.5" width="5" fill="black"><title>So High School: 1</title></rect><rect x="780" y="40.5" height="8.5" width="5" fill="black"><title>How Did It End?: 1</title></rect><rect x="780" y="54" height="8.5" width="5" fill="black"><title>Chloe or Sam or Sophia or Marcus: 1</title></rect><rect x="780" y="67.5" height="8.5" width="5" fill="black"><title>The Albatross: 1</title></rect><rect x="780" y="81" height="8.5" width="5" fill="black"><title>imgonnagetyouback: 1</title></rect><rect x="780" y="94.5" height="8.5" width="5" fill="black"><title>Clara Bow: 1</title></rect><rect x="780" y="108" height="8.5" width="5" fill="black"><title>The Alchemy: 1</title></rect><rect x="780" y="121.5" height="8.5" width="5" fill="black"><title>The Smallest Man Who Ever Lived: 1</title></rect><rect x="780" y="135" height="8.5" width="5" fill="black"><title>Art Deco: 1</title></rect><rect x="780" y="148.5" height="8.5" width="5" fill="black"><title>Born To Die: 1</title></rect><rect x="780" y="162" height="8.5" width="5" fill="black"><title>West Coast: 1</title></rect><rect x="780" y="175.5" height="8.5" width="5" fill="black"><title>Chemtrails Over The Country Club: 1</title></rect><rect x="780" y="189" height="8.5" width="5" fill="black"><title>Salvatore: 1</title></rect><rect x="780" y="202.5" height="8.5" width="5" fill="black"><title>Summertime Sadness: 1</title></rect><rect x="780" y="216" height="8.5" width="5" fill="black"><title>Say Yes To Heaven: 1</title></rect><rect x="780" y="229.5" height="8.5" width="5" fill="black"><title>Cinnamon Girl: 1</title></rect><rect x="780" y="243" height="8.5" width="5" fill="black"><title>Young And Beautiful: 1</title></rect><rect x="390" y="114" height="17" width="5" fill="black"><title>Honeymoon: 2</title></rect><rect x="390" y="136" height="17" width="5" fill="black"><title>Born To Die - The Paradise Edition: 2</title></rect><rect x="780" y="256.5" height="17" width="5" fill="black"><title>My Boy Only Breaks His Favorite Toys: 2</title></rect><rect x="780" y="278.5" height="17" width="5" fill="black"><title>I Hate It Here: 2</title></rect><rect x="780" y="300.5" height="17" width="5" fill="black"><title>I Can Do It With a Broken Heart: 2</title></rect><rect x="780" y="322.5" height="17" width="5" fill="black"><title>loml: 2</title></rect><rect x="780" y="344.5" height="17" width="5" fill="black"><title>I Can Fix Him (No Really I Can): 2</title></rect><rect x="780" y="366.5" height="17" width="5" fill="black"><title>Who’s Afraid of Little Old Me?: 2</title></rect><rect x="780" y="388.5" height="17" width="5" fill="black"><title>Guilty as Sin?: 2</title></rect><rect x="780" y="410.5" height="17" width="5" fill="black"><title>Brooklyn Baby: 2</title></rect><rect x="390" y="158" height="25.5" width="5" fill="black"><title>Ultraviolence (Deluxe): 3</title></rect><rect x="780" y="432.5" height="25.5" width="5" fill="black"><title>Florida!!! (feat. Florence + The Machine): 3</title></rect><rect x="780" y="463" height="25.5" width="5" fill="black"><title>Fresh Out The Slammer: 3</title></rect><rect x="780" y="493.5" height="25.5" width="5" fill="black"><title>But Daddy I Love Him: 3</title></rect><rect x="780" y="524" height="25.5" width="5" fill="black"><title>So Long, London: 3</title></rect><rect x="780" y="554.5" height="25.5" width="5" fill="black"><title>Down Bad: 3</title></rect><rect x="0" y="75" height="93.5" width="5" fill="black"><title>Lana Del Rey: 11</title></rect><rect x="0" y="173.5" height="331.5" width="5" fill="black"><title>Taylor Swift: 39</title></rect><rect x="390" y="188.5" height="331.5" width="5" fill="black"><title>THE TORTURED POETS DEPARTMENT: 39</title></rect></g><g fill="none" stroke-opacity="1"><g style="mix-blend-mode: multiply;"><path d="M5,339.25C197.5,339.25,197.5,354.25,390,354.25" stroke="#f7c6e0" stroke-width="331.5"/><title>Taylor Swift → THE TORTURED POETS DEPARTMENT: 39</title></g><g style="mix-blend-mode: multiply;"><path d="M5,117.5C197.5,117.5,197.5,122.5,390,122.5" stroke="#e9edc9" stroke-width="17"/><title>Lana Del Rey → Honeymoon: 2</title></g><g style="mix-blend-mode: multiply;"><path d="M5,134.5C197.5,134.5,197.5,144.5,390,144.5" stroke="#e9edc9" stroke-width="17"/><title>Lana Del Rey → Born To Die - The Paradise Edition: 2</title></g><g style="mix-blend-mode: multiply;"><path d="M5,155.75C197.5,155.75,197.5,170.75,390,170.75" stroke="#e9edc9" stroke-width="25.5"/><title>Lana Del Rey → Ultraviolence (Deluxe): 3</title></g><g style="mix-blend-mode: multiply;"><path d="M5,79.25C197.5,79.25,197.5,64.25,390,64.25" stroke="#e9edc9" stroke-width="8.5"/><title>Lana Del Rey → Chemtrails Over The Country Club: 1</title></g><g style="mix-blend-mode: multiply;"><path d="M5,87.75C197.5,87.75,197.5,77.75,390,77.75" stroke="#e9edc9" stroke-width="8.5"/><title>Lana Del Rey → Say Yes To Heaven: 1</title></g><g style="mix-blend-mode: multiply;"><path d="M5,96.25C197.5,96.25,197.5,91.25,390,91.25" stroke="#e9edc9" stroke-width="8.5"/><title>Lana Del Rey → Norman Fucking Rockwell!: 1</title></g><g style="mix-blend-mode: multiply;"><path d="M5,104.75C197.5,104.75,197.5,104.75,390,104.75" stroke="#e9edc9" stroke-width="8.5"/><title>Lana Del Rey → Young And Beautiful: 1</title></g><g style="mix-blend-mode: multiply;"><path d="M395,405.25C587.5,405.25,587.5,445.25,780,445.25" stroke="#bde0fe" stroke-width="25.5"/><title>THE TORTURED POETS DEPARTMENT → Florida!!! (feat. Florence + The Machine): 3</title></g><g style="mix-blend-mode: multiply;"><path d="M395,430.75C587.5,430.75,587.5,475.75,780,475.75" stroke="#bde0fe" stroke-width="25.5"/><title>THE TORTURED POETS DEPARTMENT → Fresh Out The Slammer: 3</title></g><g style="mix-blend-mode: multiply;"><path d="M395,456.25C587.5,456.25,587.5,506.25,780,506.25" stroke="#bde0fe" stroke-width="25.5"/><title>THE TORTURED POETS DEPARTMENT → But Daddy I Love Him: 3</title></g><g style="mix-blend-mode: multiply;"><path d="M395,481.75C587.5,481.75,587.5,536.75,780,536.75" stroke="#bde0fe" stroke-width="25.5"/><title>THE TORTURED POETS DEPARTMENT → So Long, London: 3</title></g><g style="mix-blend-mode: multiply;"><path d="M395,507.25C587.5,507.25,587.5,567.25,780,567.25" stroke="#bde0fe" stroke-width="25.5"/><title>THE TORTURED POETS DEPARTMENT → Down Bad: 3</title></g><g style="mix-blend-mode: multiply;"><path d="M395,282C587.5,282,587.5,265,780,265" stroke="#bde0fe" stroke-width="17"/><title>THE TORTURED POETS DEPARTMENT → My Boy Only Breaks His Favorite Toys: 2</title></g><g style="mix-blend-mode: multiply;"><path d="M395,192.75C587.5,192.75,587.5,4.25,780,4.25" stroke="#bde0fe" stroke-width="8.5"/><title>THE TORTURED POETS DEPARTMENT → The Prophecy: 1</title></g><g style="mix-blend-mode: multiply;"><path d="M395,201.25C587.5,201.25,587.5,17.75,780,17.75" stroke="#bde0fe" stroke-width="8.5"/><title>THE TORTURED POETS DEPARTMENT → I Look in People's Windows: 1</title></g><g style="mix-blend-mode: multiply;"><path d="M395,299C587.5,299,587.5,287,780,287" stroke="#bde0fe" stroke-width="17"/><title>THE TORTURED POETS DEPARTMENT → I Hate It Here: 2</title></g><g style="mix-blend-mode: multiply;"><path d="M395,209.75C587.5,209.75,587.5,31.25,780,31.25" stroke="#bde0fe" stroke-width="8.5"/><title>THE TORTURED POETS DEPARTMENT → So High School: 1</title></g><g style="mix-blend-mode: multiply;"><path d="M395,218.25C587.5,218.25,587.5,44.75,780,44.75" stroke="#bde0fe" stroke-width="8.5"/><title>THE TORTURED POETS DEPARTMENT → How Did It End?: 1</title></g><g style="mix-blend-mode: multiply;"><path d="M395,226.75C587.5,226.75,587.5,58.25,780,58.25" stroke="#bde0fe" stroke-width="8.5"/><title>THE TORTURED POETS DEPARTMENT → Chloe or Sam or Sophia or Marcus: 1</title></g><g style="mix-blend-mode: multiply;"><path d="M395,235.25C587.5,235.25,587.5,71.75,780,71.75" stroke="#bde0fe" stroke-width="8.5"/><title>THE TORTURED POETS DEPARTMENT → The Albatross: 1</title></g><g style="mix-blend-mode: multiply;"><path d="M395,243.75C587.5,243.75,587.5,85.25,780,85.25" stroke="#bde0fe" stroke-width="8.5"/><title>THE TORTURED POETS DEPARTMENT → imgonnagetyouback: 1</title></g><g style="mix-blend-mode: multiply;"><path d="M395,252.25C587.5,252.25,587.5,98.75,780,98.75" stroke="#bde0fe" stroke-width="8.5"/><title>THE TORTURED POETS DEPARTMENT → Clara Bow: 1</title></g><g style="mix-blend-mode: multiply;"><path d="M395,260.75C587.5,260.75,587.5,112.25,780,112.25" stroke="#bde0fe" stroke-width="8.5"/><title>THE TORTURED POETS DEPARTMENT → The Alchemy: 1</title></g><g style="mix-blend-mode: multiply;"><path d="M395,269.25C587.5,269.25,587.5,125.75,780,125.75" stroke="#bde0fe" stroke-width="8.5"/><title>THE TORTURED POETS DEPARTMENT → The Smallest Man Who Ever Lived: 1</title></g><g style="mix-blend-mode: multiply;"><path d="M395,316C587.5,316,587.5,309,780,309" stroke="#bde0fe" stroke-width="17"/><title>THE TORTURED POETS DEPARTMENT → I Can Do It With a Broken Heart: 2</title></g><g style="mix-blend-mode: multiply;"><path d="M395,333C587.5,333,587.5,331,780,331" stroke="#bde0fe" stroke-width="17"/><title>THE TORTURED POETS DEPARTMENT → loml: 2</title></g><g style="mix-blend-mode: multiply;"><path d="M395,350C587.5,350,587.5,353,780,353" stroke="#bde0fe" stroke-width="17"/><title>THE TORTURED POETS DEPARTMENT → I Can Fix Him (No Really I Can): 2</title></g><g style="mix-blend-mode: multiply;"><path d="M395,367C587.5,367,587.5,375,780,375" stroke="#bde0fe" stroke-width="17"/><title>THE TORTURED POETS DEPARTMENT → Who’s Afraid of Little Old Me?: 2</title></g><g style="mix-blend-mode: multiply;"><path d="M395,384C587.5,384,587.5,397,780,397" stroke="#bde0fe" stroke-width="17"/><title>THE TORTURED POETS DEPARTMENT → Guilty as Sin?: 2</title></g><g style="mix-blend-mode: multiply;"><path d="M395,118.25C587.5,118.25,587.5,139.25,780,139.25" stroke="#cdeac0" stroke-width="8.5"/><title>Honeymoon → Art Deco: 1</title></g><g style="mix-blend-mode: multiply;"><path d="M395,140.25C587.5,140.25,587.5,152.75,780,152.75" stroke="#a8dadc" stroke-width="8.5"/><title>Born To Die - The Paradise Edition → Born To Die: 1</title></g><g style="mix-blend-mode: multiply;"><path d="M395,162.25C587.5,162.25,587.5,166.25,780,166.25" stroke="#d8c3a5" stroke-width="8.5"/><title>Ultraviolence (Deluxe) → West Coast: 1</title></g><g style="mix-blend-mode: multiply;"><path d="M395,64.25C587.5,64.25,587.5,179.75,780,179.75" stroke="#ffe5b4" stroke-width="8.5"/><title>Chemtrails Over The Country Club → Chemtrails Over The Country Club: 1</title></g><g style="mix-blend-mode: multiply;"><path d="M395,126.75C587.5,126.75,587.5,193.25,780,193.25" stroke="#cdeac0" stroke-width="8.5"/><title>Honeymoon → Salvatore: 1</title></g><g style="mix-blend-mode: multiply;"><path d="M395,175C587.5,175,587.5,419,780,419" stroke="#d8c3a5" stroke-width="17"/><title>Ultraviolence (Deluxe) → Brooklyn Baby: 2</title></g><g style="mix-blend-mode: multiply;"><path d="M395,148.75C587.5,148.75,587.5,206.75,780,206.75" stroke="#a8dadc" stroke-width="8.5"/><title>Born To Die - The Paradise Edition → Summertime Sadness: 1</title></g><g style="mix-blend-mode: multiply;"><path d="M395,77.75C587.5,77.75,587.5,220.25,780,220.25" stroke="#d6cdea" stroke-width="8.5"/><title>Say Yes To Heaven → Say Yes To Heaven: 1</title></g><g style="mix-blend-mode: multiply;"><path d="M395,91.25C587.5,91.25,587.5,233.75,780,233.75" stroke="#f4a7a7" stroke-width="8.5"/><title>Norman Fucking Rockwell! → Cinnamon Girl: 1</title></g><g style="mix-blend-mode: multiply;"><path d="M395,104.75C587.5,104.75,587.5,247.25,780,247.25" stroke="#d3d3d3" stroke-width="8.5"/><title>Young And Beautiful → Young And Beautiful: 1</title></g></g><g><text x="399" y="64.25" text-anchor="start"><tspan alignment-baseline="middle" x="399" style="font-family: Arial, sans-serif; font-size: 10px; fill: black; font-weight: bold;">Chemtrails Over The Country Club</tspan></text><text x="399" y="77.75" text-anchor="start"><tspan alignment-baseline="middle" x="399" style="font-family: Arial, sans-serif; font-size: 10px; fill: black; font-weight: bold;">Say Yes To Heaven</tspan></text><text x="399" y="91.25" text-anchor="start"><tspan alignment-baseline="middle" x="399" style="font-family: Arial, sans-serif; font-size: 10px; fill: black; font-weight: bold;">Norman Fucking Rockwell!</tspan></text><text x="399" y="104.75" text-anchor="start"><tspan alignment-baseline="middle" x="399" style="font-family: Arial, sans-serif; font-size: 10px; fill: black; font-weight: bold;">Young And Beautiful</tspan></text><text x="776" y="4.25" text-anchor="end"><tspan alignment-baseline="middle" x="776" style="font-family: Arial, sans-serif; font-size: 10px; fill: black; font-weight: bold;">The Prophecy</tspan></text><text x="776" y="17.75" text-anchor="end"><tspan alignment-baseline="middle" x="776" style="font-family: Arial, sans-serif; font-size: 10px; fill: black; font-weight: bold;">I Look in People's Windows</tspan></text><text x="776" y="31.25" text-anchor="end"><tspan alignment-baseline="middle" x="776" style="font-family: Arial, sans-serif; font-size: 10px; fill: black; font-weight: bold;">So High School</tspan></text><text x="776" y="44.75" text-anchor="end"><tspan alignment-baseline="middle" x="776" style="font-family: Arial, sans-serif; font-size: 10px; fill: black; font-weight: bold;">How Did It End?</tspan></text><text x="776" y="58.25" text-anchor="end"><tspan alignment-baseline="middle" x="776" style="font-family: Arial, sans-serif; font-size: 10px; fill: black; font-weight: bold;">Chloe or Sam or Sophia or Marcus</tspan></text><text x="776" y="71.75" text-anchor="end"><tspan alignment-baseline="middle" x="776" style="font-family: Arial, sans-serif; font-size: 10px; fill: black; font-weight: bold;">The Albatross</tspan></text><text x="776" y="85.25" text-anchor="end"><tspan alignment-baseline="middle" x="776" style="font-family: Arial, sans-serif; font-size: 10px; fill: black; font-weight: bold;">imgonnagetyouback</tspan></text><text x="776" y="98.75" text-anchor="end"><tspan alignment-baseline="middle" x="776" style="font-family: Arial, sans-serif; font-size: 10px; fill: black; font-weight: bold;">Clara Bow</tspan></text><text x="776" y="112.25" text-anchor="end"><tspan alignment-baseline="middle" x="776" style="font-family: Arial, sans-serif; font-size: 10px; fill: black; font-weight: bold;">The Alchemy</tspan></text><text x="776" y="125.75" text-anchor="end"><tspan alignment-baseline="middle" x="776" style="font-family: Arial, sans-serif; font-size: 10px; fill: black; font-weight: bold;">The Smallest Man Who Ever Lived</tspan></text><text x="776" y="139.25" text-anchor="end"><tspan alignment-baseline="middle" x="776" style="font-family: Arial, sans-serif; font-size: 10px; fill: black; font-weight: bold;">Art Deco</tspan></text><text x="776" y="152.75" text-anchor="end"><tspan alignment-baseline="middle" x="776" style="font-family: Arial, sans-serif; font-size: 10px; fill: black; font-weight: bold;">Born To Die</tspan></text><text x="776" y="166.25" text-anchor="end"><tspan alignment-baseline="middle" x="776" style="font-family: Arial, sans-serif; font-size: 10px; fill: black; font-weight: bold;">West Coast</tspan></text><text x="776" y="179.75" text-anchor="end"><tspan alignment-baseline="middle" x="776" style="font-family: Arial, sans-serif; font-size: 10px; fill: black; font-weight: bold;">Chemtrails Over The Country Club</tspan></text><text x="776" y="193.25" text-anchor="end"><tspan alignment-baseline="middle" x="776" style="font-family: Arial, sans-serif; font-size: 10px; fill: black; font-weight: bold;">Salvatore</tspan></text><text x="776" y="206.75" text-anchor="end"><tspan alignment-baseline="middle" x="776" style="font-family: Arial, sans-serif; font-size: 10px; fill: black; font-weight: bold;">Summertime Sadness</tspan></text><text x="776" y="220.25" text-anchor="end"><tspan alignment-baseline="middle" x="776" style="font-family: Arial, sans-serif; font-size: 10px; fill: black; font-weight: bold;">Say Yes To Heaven</tspan></text><text x="776" y="233.75" text-anchor="end"><tspan alignment-baseline="middle" x="776" style="font-family: Arial, sans-serif; font-size: 10px; fill: black; font-weight: bold;">Cinnamon Girl</tspan></text><text x="776" y="247.25" text-anchor="end"><tspan alignment-baseline="middle" x="776" style="font-family: Arial, sans-serif; font-size: 10px; fill: black; font-weight: bold;">Young And Beautiful</tspan></text><text x="399" y="122.5" text-anchor="start"><tspan alignment-baseline="middle" x="399" style="font-family: Arial, sans-serif; font-size: 10px; fill: black; font-weight: bold;">Honeymoon</tspan></text><text x="399" y="144.5" text-anchor="start"><tspan alignment-baseline="middle" x="399" style="font-family: Arial, sans-serif; font-size: 10px; fill: black; font-weight: bold;">Born To Die - The Paradise Edition</tspan></text><text x="776" y="265" text-anchor="end"><tspan alignment-baseline="middle" x="776" style="font-family: Arial, sans-serif; font-size: 10px; fill: black; font-weight: bold;">My Boy Only Breaks His Favorite Toys</tspan></text><text x="776" y="287" text-anchor="end"><tspan alignment-baseline="middle" x="776" style="font-family: Arial, sans-serif; font-size: 10px; fill: black; font-weight: bold;">I Hate It Here</tspan></text><text x="776" y="309" text-anchor="end"><tspan alignment-baseline="middle" x="776" style="font-family: Arial, sans-serif; font-size: 10px; fill: black; font-weight: bold;">I Can Do It With a Broken Heart</tspan></text><text x="776" y="331" text-anchor="end"><tspan alignment-baseline="middle" x="776" style="font-family: Arial, sans-serif; font-size: 10px; fill: black; font-weight: bold;">loml</tspan></text><text x="776" y="353" text-anchor="end"><tspan alignment-baseline="middle" x="776" style="font-family: Arial, sans-serif; font-size: 10px; fill: black; font-weight: bold;">I Can Fix Him (No Really I Can)</tspan></text><text x="776" y="375" text-anchor="end"><tspan alignment-baseline="middle" x="776" style="font-family: Arial, sans-serif; font-size: 10px; fill: black; font-weight: bold;">Who’s Afraid of Little Old Me?</tspan></text><text x="776" y="397" text-anchor="end"><tspan alignment-baseline="middle" x="776" style="font-family: Arial, sans-serif; font-size: 10px; fill: black; font-weight: bold;">Guilty as Sin?</tspan></text><text x="776" y="419" text-anchor="end"><tspan alignment-baseline="middle" x="776" style="font-family: Arial, sans-serif; font-size: 10px; fill: black; font-weight: bold;">Brooklyn Baby</tspan></text><text x="399" y="170.75" text-anchor="start"><tspan alignment-baseline="middle" x="399" style="font-family: Arial, sans-serif; font-size: 10px; fill: black; font-weight: bold;">Ultraviolence (Deluxe)</tspan></text><text x="776" y="445.25" text-anchor="end"><tspan alignment-baseline="middle" x="776" style="font-family: Arial, sans-serif; font-size: 10px; fill: black; font-weight: bold;">Florida!!! (feat. Florence + The Machine)</tspan></text><text x="776" y="475.75" text-anchor="end"><tspan alignment-baseline="middle" x="776" style="font-family: Arial, sans-serif; font-size: 10px; fill: black; font-weight: bold;">Fresh Out The Slammer</tspan></text><text x="776" y="506.25" text-anchor="end"><tspan alignment-baseline="middle" x="776" style="font-family: Arial, sans-serif; font-size: 10px; fill: black; font-weight: bold;">But Daddy I Love Him</tspan></text><text x="776" y="536.75" text-anchor="end"><tspan alignment-baseline="middle" x="776" style="font-family: Arial, sans-serif; font-size: 10px; fill: black; font-weight: bold;">So Long, London</tspan></text><text x="776" y="567.25" text-anchor="end"><tspan alignment-baseline="middle" x="776" style="font-family: Arial, sans-serif; font-size: 10px; fill: black; font-weight: bold;">Down Bad</tspan></text><text x="9" y="121.75" text-anchor="start"><tspan alignment-baseline="middle" x="9" style="font-family: Arial, sans-serif; font-size: 10px; fill: black; font-weight: bold;">Lana Del Rey</tspan></text><text x="9" y="339.25" text-anchor="start"><tspan alignment-baseline="middle" x="9" style="font-family: Arial, sans-serif; font-size: 10px; fill: black; font-weight: bold;">Taylor Swift</tspan></text><text x="399" y="354.25" text-anchor="start"><tspan alignment-baseline="middle" x="399" style="font-family: Arial, sans-serif; font-size: 10px; fill: black; font-weight: bold;">THE TORTURED POETS DEPARTMENT</tspan></text></g><g><text x="392.5" y="56" text-anchor="middle" style="font-family: Arial, sans-serif; font-size: 12px; fill: rgb(123, 123, 123); font-weight: bold;">album</text><text x="782.5" y="-4" text-anchor="middle" style="font-family: Arial, sans-serif; font-size: 12px; fill: rgb(123, 123, 123); font-weight: bold;">track</text><text x="2.5" y="71" text-anchor="middle" style="font-family: Arial, sans-serif; font-size: 12px; fill: rgb(123, 123, 123); font-weight: bold;">artist</text></g></g></svg>